<?xml version="1.0" encoding="UTF-8" standalone="no"?>
<svg xmlns:rdf="http://www.w3.org/1999/02/22-rdf-syntax-ns#" xmlns="http://www.w3.org/2000/svg" enable-background="new 0 0 300 300" xml:space="preserve" viewBox="0 0 300 300" version="1.1" y="0px" x="0px" xmlns:cc="http://creativecommons.org/ns#" xmlns:xlink="http://www.w3.org/1999/xlink" xmlns:dc="http://purl.org/dc/elements/1.1/"><defs><path id="SVGID_1_" d="m206.34 130.46h-112.68c-0.183 0-0.444-0.101-0.393 0.066l-15.6 84.631h144.62l-15.606-84.897c0.1-0.16-0.16 0.2-0.34 0.2z"/><path id="SVGID_3_" d="m206.34 130.46h-112.68c-0.183 0-0.444-0.101-0.393 0.066l-15.6 84.631h144.62l-15.606-84.897c0.1-0.16-0.16 0.2-0.34 0.2z"/><path id="SVGID_5_" d="m206.34 130.46h-112.68c-0.183 0-0.444-0.101-0.393 0.066l-15.6 84.631h144.62l-15.606-84.897c0.1-0.16-0.16 0.2-0.34 0.2z"/><path id="SVGID_7_" d="m206.34 130.46h-112.68c-0.183 0-0.444-0.101-0.393 0.066l-15.6 84.631h144.62l-15.606-84.897c0.1-0.16-0.16 0.2-0.34 0.2z"/><path id="SVGID_9_" d="m206.34 130.46h-112.68c-0.183 0-0.444-0.101-0.393 0.066l-15.6 84.631h144.62l-15.606-84.897c0.1-0.16-0.16 0.2-0.34 0.2z"/><path id="SVGID_11_" d="m513.1 168.91l4.984-20.697c0.016-0.064 0.031-0.128 0.049-0.194 1.32-4.928 5.202-8.809 10.131-10.131l15.124-4.053c-2.481-2.958-6.205-4.843-10.357-4.843h-4.46c-1.142-3.58-2.586-7.069-4.315-10.411l3.155-3.155c5.271-5.271 5.271-13.849 0-19.119l-9.542-9.542c-2.553-2.553-5.947-3.958-9.561-3.958-3.608 0-7.004 1.406-9.557 3.958l-3.157 3.158c-3.342-1.731-6.832-3.178-10.409-4.315v-4.462c0-7.453-6.064-13.516-13.52-13.516h-13.494c-7.453 0-13.519 6.063-13.519 13.516v4.462c-3.578 1.138-7.068 2.584-10.409 4.315l-3.158-3.158c-2.553-2.553-5.947-3.958-9.559-3.958-3.609 0-7.004 1.408-9.561 3.961l-9.539 9.541c-5.271 5.271-5.271 13.847 0 19.117l3.155 3.155c-1.731 3.342-3.178 6.831-4.316 10.411h-4.461c-7.451 0-13.517 6.063-13.517 13.52v13.494c0 7.453 6.064 13.519 13.519 13.519h4.46c1.141 3.58 2.587 7.068 4.315 10.41l-3.155 3.154c-5.271 5.272-5.271 13.85 0 19.118l9.541 9.542c2.555 2.553 5.948 3.961 9.561 3.961 3.608 0 7.004-1.408 9.557-3.961l3.158-3.154c3.339 1.729 6.829 3.174 10.409 4.313v4.462c0 7.453 6.064 13.519 13.519 13.519h11.705c-1.083-2.58-1.654-5.373-1.654-8.258 0-5.701 2.22-11.061 6.252-15.093l38.64-38.64zm-48.18 16.63c-20.004 0-36.279-16.275-36.279-36.28 0-20.004 16.275-36.279 36.279-36.279 20.005 0 36.28 16.275 36.28 36.279 0 20.01-16.28 36.28-36.28 36.28z"/><path id="SVGID_15_" d="m206.34 130.46h-112.68c-0.183 0-0.444-0.101-0.393 0.066l-15.6 84.631h144.62l-15.606-84.897c0.1-0.16-0.16 0.2-0.34 0.2z"/><path id="SVGID_17_" d="m206.34 130.46h-112.68c-0.183 0-0.444-0.101-0.393 0.066l-15.6 84.631h144.62l-15.606-84.897c0.1-0.16-0.16 0.2-0.34 0.2z"/><path id="SVGID_19_" d="m206.34 130.46h-112.68c-0.183 0-0.444-0.101-0.393 0.066l-15.6 84.631h144.62l-15.606-84.897c0.1-0.16-0.16 0.2-0.34 0.2z"/><path id="SVGID_21_" d="m206.34 130.46h-112.68c-0.183 0-0.444-0.101-0.393 0.066l-15.6 84.631h144.62l-15.606-84.897c0.1-0.16-0.16 0.2-0.34 0.2z"/><path id="SVGID_23_" d="m206.34 130.46h-112.68c-0.183 0-0.444-0.101-0.393 0.066l-15.6 84.631h144.62l-15.606-84.897c0.1-0.16-0.16 0.2-0.34 0.2z"/><path id="SVGID_25_" d="m513.1 168.91l4.984-20.697c0.016-0.064 0.031-0.128 0.049-0.194 1.32-4.928 5.202-8.809 10.131-10.131l15.124-4.053c-2.481-2.958-6.205-4.843-10.357-4.843h-4.46c-1.142-3.58-2.586-7.069-4.315-10.411l3.155-3.155c5.271-5.271 5.271-13.849 0-19.119l-9.542-9.542c-2.553-2.553-5.947-3.958-9.561-3.958-3.608 0-7.004 1.406-9.557 3.958l-3.157 3.158c-3.342-1.731-6.832-3.178-10.409-4.315v-4.462c0-7.453-6.064-13.516-13.52-13.516h-13.494c-7.453 0-13.519 6.063-13.519 13.516v4.462c-3.578 1.138-7.068 2.584-10.409 4.315l-3.158-3.158c-2.553-2.553-5.947-3.958-9.559-3.958-3.609 0-7.004 1.408-9.561 3.961l-9.539 9.541c-5.271 5.271-5.271 13.847 0 19.117l3.155 3.155c-1.731 3.342-3.178 6.831-4.316 10.411h-4.461c-7.451 0-13.517 6.063-13.517 13.52v13.494c0 7.453 6.064 13.519 13.519 13.519h4.46c1.141 3.58 2.587 7.068 4.315 10.41l-3.155 3.154c-5.271 5.272-5.271 13.85 0 19.118l9.541 9.542c2.555 2.553 5.948 3.961 9.561 3.961 3.608 0 7.004-1.408 9.557-3.961l3.158-3.154c3.339 1.729 6.829 3.174 10.409 4.313v4.462c0 7.453 6.064 13.519 13.519 13.519h11.705c-1.083-2.58-1.654-5.373-1.654-8.258 0-5.701 2.22-11.061 6.252-15.093l38.64-38.64zm-48.18 16.63c-20.004 0-36.279-16.275-36.279-36.28 0-20.004 16.275-36.279 36.279-36.279 20.005 0 36.28 16.275 36.28 36.279 0 20.01-16.28 36.28-36.28 36.28z"/><path id="SVGID_28_" d="m206.34 130.46h-112.68c-0.183 0-0.444-0.101-0.393 0.066l-15.6 84.631h144.62l-15.606-84.897c0.1-0.16-0.16 0.2-0.34 0.2z"/><path id="SVGID_30_" d="m206.34 130.46h-112.68c-0.183 0-0.444-0.101-0.393 0.066l-15.6 84.631h144.62l-15.606-84.897c0.1-0.16-0.16 0.2-0.34 0.2z"/><path id="SVGID_32_" d="m206.34 130.46h-112.68c-0.183 0-0.444-0.101-0.393 0.066l-15.6 84.631h144.62l-15.606-84.897c0.1-0.16-0.16 0.2-0.34 0.2z"/><path id="SVGID_34_" d="m206.34 130.46h-112.68c-0.183 0-0.444-0.101-0.393 0.066l-15.6 84.631h144.62l-15.606-84.897c0.1-0.16-0.16 0.2-0.34 0.2z"/><path id="SVGID_36_" d="m206.34 130.46h-112.68c-0.183 0-0.444-0.101-0.393 0.066l-15.6 84.631h144.62l-15.606-84.897c0.1-0.16-0.16 0.2-0.34 0.2z"/></defs><g id="Layer_1_1_" display="none"><circle display="inline" cy="150" cx="150" r="140" fill="#FDB813"/><g display="inline"><path d="m70.948 222.69c-0.732 0-1.3-0.198-1.6-0.556-0.299-0.36-0.394-0.954-0.261-1.673l16.887-92.596c0.461-2.535 3.336-4.931 5.913-4.931h116.23c2.576 0 5.449 2.396 5.91 4.931l16.89 92.596c0.132 0.719 0.038 1.313-0.261 1.673-0.301 0.356-0.868 0.556-1.601 0.556h-158.11z" fill="#9FA1A4"/><path d="m206.64 130.46l15.659 84.697h-144.59l15.445-84.697h113.49zm1.47-15.05h-116.22c-6.211 0-12.205 5-13.319 11.109l-16.891 92.59c-1.113 6.111 3.057 11.109 9.269 11.109h158.1c6.211 0 10.381-4.998 9.27-11.109l-16.889-92.592c-1.11-6.11-7.11-11.11-13.32-11.11z" fill="#fff"/><path d="m208.23 122.94c2.576 0 5.392 2.396 5.853 4.931l16.858 92.596c0.133 0.718 0.023 1.312-0.275 1.673-0.3 0.356-0.882 0.555-1.614 0.555h-158.1c-0.732 0-1.3-0.197-1.6-0.555-0.299-0.361-0.394-0.955-0.261-1.673l16.887-92.596c0.461-2.535 3.336-4.931 5.913-4.931h116.46-0.12zm-0.12-7.53h-116.22c-6.211 0-12.205 5-13.319 11.109l-16.891 92.59c-1.113 6.111 3.057 11.109 9.269 11.109h158.1c6.211 0 10.381-4.998 9.27-11.109l-16.889-92.592c-1.11-6.11-7.11-11.11-13.32-11.11z" fill="#6D6E70"/><clipPath id="SVGID_2_"><use overflow="visible" xlink:href="#SVGID_1_"/></clipPath><path fill="#00548E" d="m80.651 167.73s4.703 10.021 8.122 10.863c3.445 0.846 7.112 0.846 5.42 4.728-1.744 4.014-10.218 8.397-13.021 9.571-2.829 1.194-11.28 5.08-11.28 5.08l10.759-30.24z" clip-path="url(#SVGID_2_)"/><clipPath id="SVGID_4_"><use overflow="visible" xlink:href="#SVGID_3_"/></clipPath><path fill="#00548E" d="m233.55 209.79s-14.461-10.481-16.704-10.481c-2.244 0-5.689-0.873-7.826-1.523-2.127-0.651-13.158-9.585-13.158-9.585s-20.873 1.21-23.016 4.077c-0.808 1.084-1.979 2.383-3.314 3.613l8.144 11.656c0.918 1.313 0.931 2.771 0.019 3.255l-3.336 1.742c-0.932 0.483-2.42-0.222-3.314-1.569l-7.406-11.132c-0.463 0.173-0.917 0.29-1.341 0.347-3.489 0.439-10.479 5.399-11.5 5.172-1.021-0.229-6.519-4.731-10.583-3.396-4.103 1.35-32.876 13.643-32.876 13.643l42.35 19.349 53.588-16.599 37.301 13.234-7.02-21.79z" clip-path="url(#SVGID_4_)"/><clipPath id="SVGID_6_"><use overflow="visible" xlink:href="#SVGID_5_"/></clipPath><path fill="#20C4F4" d="m184.66 133.61s-0.966 17.978-0.619 19.017c0.349 1.053 1.485 1.316 2.83 2.779 1.366 1.486 4.573 5.783 4.573 5.783s4.979 2.144 8.382 2.867c3.428 0.729 9.495 0.438 9.418-2.725-0.075-3.068-4.396-6.859-5.915-11.415-1.455-4.359-1.26-4.97-1.318-7.249-0.057-2.229 1.131-7.314-1.878-9.276-2.94-1.92-14.86-6.26-15.46 0.22z" clip-path="url(#SVGID_6_)"/><clipPath id="SVGID_8_"><use overflow="visible" xlink:href="#SVGID_7_"/></clipPath><path fill="#fff" d="m219.76 195.08c-1.901-0.949-4.542-1.221-6.864-1.464-0.718-0.069-1.396-0.144-1.845-0.216-1.532-0.59-7.803-5.194-10.51-7.592-2.465-2.185-5.099-2.375-6.435-2.125-2.405 0.189-17.926 1.448-21.256 2.396-2.322 0.665-4.17 2.243-5.531 3.819-1.274-1.873-2.086-3.069-2.231-3.285-0.667-1.02-4.534-5.553-8.245-9.844l10.271-4.16 24.99-6.006 32.32 8.959 0.467-2.883-32.576-8.914c-0.404-0.11-0.826-0.121-1.201-0.033l-0.27 0.063-10.201-10.42 2.938-30.985-3.032-0.314-3.015 26.94-15.479-0.286c-0.309-0.022-0.613 0.045-0.878 0.15-8.11 3.242-17.618 6.841-19.039 7.072-1.85 0.271-6.138 2.545-9.588 4.512-1.29-0.948-2.224-1.731-2.643-2.261-0.013-4.79-0.116-26.618-0.116-26.618l-8.52 0.406s-0.184 4.556-0.402 10.022c-4.147-0.368-9.579-0.828-11.542-0.909-1.29-2.544-3.18-6.738-3.166-8.01 0.027-2.033-2.916-7.19-3.239-7.757l-2.972 0.901c1.146 2.053 3.003 5.878 2.965 7.151-0.048 1.691 1.916 6.044 2.846 8.006-5.599 0.688-16.752 2.364-19.462 2.772l0.037 2.308c9.795-1.496 20.741-3.074 22.02-3.088 1.085 0 7.007 0.5 12.416 0.985-0.256 6.326-0.531 13.201-0.601 14.815-0.019 0.41-0.041 1.033 0.571 2.059-3.667 0.822-8.858 1.879-12.56 2.604l-19.95 1.316c-1.517-2.577-3.114-5.402-4.364-7.684l-3.519 1.431c1.155 2.185 7.375 13.853 9.218 15.474 1.345 1.182 3.873 1.735 6.111 2.229 0.836 0.18 2.059 0.447 2.53 0.646 0.586 1.18 1.09 6.903 1.246 12.071l-34.182 16.51 1.307 3.408 37.465-18.404 39.282-10.402 3.358-0.568c3.894 4.789 8.115 10.062 8.668 10.881 0.199 0.326 1.437 2.287 3.218 5.105-2.66 1.217-5.324 2.371-6.486 2.822l-0.545 0.222c-0.063 0.024-0.121 0.052-0.174 0.072-0.211-0.136-0.557-0.39-1.121-0.839-4.211-3.325-9.696-2.326-12.045-1.328-0.805 0.34-43.632 18.424-43.632 18.424l2.248 3.452s42.34-18.156 43.152-18.507c0.042-0.021 4.253-1.729 7.362 0.779 2.29 1.846 3.493 2.496 6.075 1.411l0.471-0.192c0.07-0.026 3.313-1.369 6.797-2.982 5.894 9.318 15.054 23.792 15.667 24.756l10.454-5.496c-5.674-8.304-12.654-18.527-17.082-25.018 1.438-2.139 3.15-3.631 4.721-4.088 2.285-0.66 13.706-1.745 20.787-2.312 0.127-0.012 0.181-0.016 0.299-0.045 0.163-0.028 1.028-0.116 2.156 0.9 0.088 0.081 9.828 8.44 13.183 9.06 0.657 0.121 1.456 0.205 2.384 0.305 1.494 0.153 4 0.418 4.947 0.899 1.374 0.69 10.073 6.496 15.417 10.117l2.122-2.919c-2.37-1.57-13.88-9.22-15.99-10.28zm-77.01-36.52c2.411-0.355 15.379-5.543 19.829-7.34l14.681 0.273-0.217 1.924c-0.033 0.305 0.088 0.614 0.342 0.882l9.92 10.343-21.649 5.131c-0.104 0.026-0.08 0.057-0.176 0.093l-10.654 4.304v-0.003c-0.008-0.419-0.943-0.78-1.471-1.067-6.5-3.55-13.468-7.67-18.083-10.77 3.42-1.93 6.54-3.58 7.48-3.75zm-0.43 18.81l-38.733 10.117c-0.608-11.529-1.918-12.386-2.422-12.71-0.819-0.529-2.142-0.816-3.811-1.176-1.718-0.371-3.847-0.832-4.615-1.489-0.452-0.39-1.544-2.04-2.871-4.206l18.263-1.221c0.11-0.011 0.22-0.025 0.327-0.043 1.923-0.379 9.452-1.879 14.246-3.024 2.679 2.646 8.245 6.836 19.904 13.696l-0.075 0.011c-0.08 0.01-0.15 0.03-0.22 0.04z" clip-path="url(#SVGID_8_)"/><clipPath id="SVGID_10_"><use overflow="visible" xlink:href="#SVGID_9_"/></clipPath><path fill="#20C4F4" d="m103.89 125.79s1.916 2.202 3.028 6.354c1.163 4.342 2.84 6.662 4.96 6.956 2.132 0.296 6.97 0.147 7.959-0.587 0.982-0.729 0.993-4.988 1.478-6.778 0.478-1.755 2.654-8.093 2.654-8.093l-6.373-2.588-13.71 4.74z" clip-path="url(#SVGID_10_)"/><path d="m130.54 91.226c0-11.939 9.679-21.616 21.62-21.616v-23.831c-25.101 0-45.449 20.348-45.449 45.447 0 6.979 1.618 13.567 4.43 19.478h-0.07c14.312 33.025 41.089 64.933 41.089 64.933v-62.792c-11.94 0-21.62-9.67-21.62-21.614z" fill="#B0252B"/><path d="m197.6 91.226c0-25.099-20.347-45.447-45.444-45.447v23.831c11.933 0 21.616 9.677 21.616 21.616s-9.684 21.619-21.616 21.619v62.792s26.771-31.908 41.081-64.933h-0.07c2.81-5.91 4.43-12.495 4.43-19.474z" fill="#EF4036"/><path d="m131.34 91.226c0-11.496 9.319-20.813 20.815-20.813v-13.37c-18.877 0-34.185 15.308-34.185 34.183 0 18.877 15.308 34.187 34.185 34.187v-13.375c-11.5 0-20.82-9.32-20.82-20.814z" fill="#EF4036"/><path d="m152.16 57.043v13.37c11.488 0 20.81 9.317 20.81 20.813 0 11.494-9.321 20.812-20.81 20.812v13.375c18.877 0 34.179-15.31 34.179-34.187 0-18.882-15.3-34.19-34.18-34.19z" fill="#B0252B"/></g><circle display="inline" cy="150" cx="465" r="140" fill="#20C4F4"/><path d="m513.1 168.91l4.984-20.697c0.016-0.064 0.031-0.128 0.049-0.194 1.32-4.928 5.202-8.809 10.131-10.131l15.124-4.053c-2.481-2.958-6.205-4.843-10.357-4.843h-4.46c-1.142-3.58-2.586-7.069-4.315-10.411l3.155-3.155c5.271-5.271 5.271-13.849 0-19.119l-9.542-9.542c-2.553-2.553-5.947-3.958-9.561-3.958-3.608 0-7.004 1.406-9.557 3.958l-3.157 3.158c-3.342-1.731-6.832-3.178-10.409-4.315v-4.462c0-7.453-6.064-13.516-13.52-13.516h-13.494c-7.453 0-13.519 6.063-13.519 13.516v4.462c-3.578 1.138-7.068 2.584-10.409 4.315l-3.158-3.158c-2.553-2.553-5.947-3.958-9.559-3.958-3.609 0-7.004 1.408-9.561 3.961l-9.539 9.541c-5.271 5.271-5.271 13.847 0 19.117l3.155 3.155c-1.731 3.342-3.178 6.831-4.316 10.411h-4.461c-7.451 0-13.517 6.063-13.517 13.52v13.494c0 7.453 6.064 13.519 13.519 13.519h4.46c1.141 3.58 2.587 7.068 4.315 10.41l-3.155 3.154c-5.271 5.272-5.271 13.85 0 19.118l9.541 9.542c2.555 2.553 5.948 3.961 9.561 3.961 3.608 0 7.004-1.408 9.557-3.961l3.158-3.154c3.339 1.729 6.829 3.174 10.409 4.313v4.462c0 7.453 6.064 13.519 13.519 13.519h11.705c-1.083-2.58-1.654-5.373-1.654-8.258 0-5.701 2.22-11.061 6.252-15.093l38.64-38.64zm-48.18 16.63c-20.004 0-36.279-16.275-36.279-36.28 0-20.004 16.275-36.279 36.279-36.279 20.005 0 36.28 16.275 36.28 36.279 0 20.01-16.28 36.28-36.28 36.28z" display="inline" fill="#B0252B"/><circle display="inline" cy="150" cx="780" r="140" fill="#00548E"/><circle display="inline" cy="150" cx="1095" r="140" fill="#EF4036"/><g display="inline"><path d="m513.1 168.91l4.984-20.697c0.016-0.064 0.031-0.128 0.049-0.194 1.32-4.928 5.202-8.809 10.131-10.131l15.124-4.053c-2.481-2.958-6.205-4.843-10.357-4.843h-4.46c-1.142-3.58-2.586-7.069-4.315-10.411l3.155-3.155c5.271-5.271 5.271-13.849 0-19.119l-9.542-9.542c-2.553-2.553-5.947-3.958-9.561-3.958-3.608 0-7.004 1.406-9.557 3.958l-3.157 3.158c-3.342-1.731-6.832-3.178-10.409-4.315v-4.462c0-7.453-6.064-13.516-13.52-13.516h-13.494c-7.453 0-13.519 6.063-13.519 13.516v4.462c-3.578 1.138-7.068 2.584-10.409 4.315l-3.158-3.158c-2.553-2.553-5.947-3.958-9.559-3.958-3.609 0-7.004 1.408-9.561 3.961l-9.539 9.541c-5.271 5.271-5.271 13.847 0 19.117l3.155 3.155c-1.731 3.342-3.178 6.831-4.316 10.411h-4.461c-7.451 0-13.517 6.063-13.517 13.52v13.494c0 7.453 6.064 13.519 13.519 13.519h4.46c1.141 3.58 2.587 7.068 4.315 10.41l-3.155 3.154c-5.271 5.272-5.271 13.85 0 19.118l9.541 9.542c2.555 2.553 5.948 3.961 9.561 3.961 3.608 0 7.004-1.408 9.557-3.961l3.158-3.154c3.339 1.729 6.829 3.174 10.409 4.313v4.462c0 7.453 6.064 13.519 13.519 13.519h11.705c-1.083-2.58-1.654-5.373-1.654-8.258 0-5.701 2.22-11.061 6.252-15.093l38.64-38.64zm-48.18 16.63c-20.004 0-36.279-16.275-36.279-36.28 0-20.004 16.275-36.279 36.279-36.279 20.005 0 36.28 16.275 36.28 36.279 0 20.01-16.28 36.28-36.28 36.28z" fill="#EF4036"/><path d="m576.15 154.94l-0.146-0.146c-0.425-0.427-0.991-0.647-1.604-0.666-0.601 0-1.179 0.236-1.604 0.664l-9.794 9.794c-1.499 1.499-3.492 2.323-5.611 2.323-2.121 0-4.114-0.824-5.614-2.325-1.5-1.499-2.325-3.492-2.325-5.613 0-2.119 0.825-4.113 2.325-5.613l9.794-9.792c0.425-0.428 0.663-1.005 0.663-1.605 0-0.602-0.24-1.181-0.666-1.605l-0.145-0.142c-1.634-1.634-3.809-2.536-6.12-2.536-0.756 0-1.509 0.101-2.239 0.295l-20.111 5.391c-2.979 0.799-5.323 3.144-6.121 6.12-0.004 0.02-0.009 0.037-0.013 0.055l-5.359 22.25-39.758 39.756c-2.961 2.961-4.591 6.896-4.588 11.083 0 4.188 1.63 8.122 4.59 11.083l0.948 0.948c2.96 2.96 6.896 4.592 11.085 4.592 4.185 0 8.122-1.63 11.082-4.59l39.757-39.756 22.249-5.359c0.018-0.005 0.036-0.009 0.056-0.014 2.977-0.797 5.321-3.142 6.12-6.12l5.388-20.115c0.78-2.96-0.08-6.16-2.25-8.34z" fill="#00548E"/><path d="m499.96 222.82c-0.857 0.856-1.996 1.328-3.207 1.328s-2.352-0.472-3.208-1.328c-0.855-0.854-1.327-1.994-1.327-3.207 0-1.211 0.472-2.352 1.329-3.205 0.854-0.856 1.995-1.328 3.206-1.328s2.35 0.472 3.207 1.328c0.855 0.854 1.328 1.994 1.328 3.205-0.01 1.22-0.48 2.36-1.33 3.22z" fill="#231F20"/><path d="m526.68 194.49l-18.765 18.764c-0.642 0.644-1.496 0.997-2.404 0.997-0.907 0-1.763-0.354-2.404-0.997-0.643-0.642-0.996-1.497-0.996-2.403 0-0.91 0.354-1.764 0.996-2.404l18.763-18.766c0.645-0.643 1.497-0.996 2.404-0.996 0.91 0 1.765 0.354 2.406 0.996 0.644 0.643 0.994 1.497 0.994 2.404 0 0.91-0.35 1.77-1 2.41z" fill="#231F20"/><path d="m526.68 194.49" fill="#00548E"/></g><circle r="36.5" cy="152" stroke="#6D6E70" cx="468" stroke-miterlimit="10" stroke-width="15" display="inline" fill="none"/><g display="inline"><clipPath id="SVGID_12_"><use overflow="visible" xlink:href="#SVGID_11_"/></clipPath><circle r="41" clip-path="url(#SVGID_12_)" cy="149" stroke="#B0252B" cx="465" stroke-miterlimit="10" stroke-width="33" fill="none"/></g><circle r="36.5" cy="149" stroke="#fff" cx="465" stroke-miterlimit="10" stroke-width="12" display="inline" fill="none"/><path d="m561.56 140.36s-19.454 6.284-20.063 19.808c-0.417 9.25 6.662 14.24 14.156 14.45 10.678 0.3 17.261-13.033 20.531-19.367 0 0-0.25-1-1.688-1.188-1.192-0.155-4.875 3.438-5.938 4.688s-5.688 5.875-8.063 7.25c-5.767 3.339-15.522-5.443-8.313-13 5.188-5.438 8.979-8.667 9.729-9.667s0.21-2.45-0.36-2.97z" display="inline" fill="#231F20"/><g display="inline"><path d="m838.19 215.17c0 10.66-8.698 19.301-19.43 19.301h-63.979c-10.729 0-19.429-8.641-19.429-19.301v-125.61c0-10.656 8.7-19.296 19.429-19.296h63.979c10.73 0 19.43 8.64 19.43 19.296v125.61z" fill="#6D6E70"/><path d="m829.89 211.17c0 10.66-8.697 19.301-19.428 19.301h-63.979c-10.729 0-19.43-8.641-19.43-19.301v-125.61c0-10.656 8.7-19.296 19.43-19.296h63.979c10.729 0 19.428 8.64 19.428 19.296v125.61z" fill="#20C4F4"/><linearGradient id="SVGID_13_" y2="-142.79" gradientUnits="userSpaceOnUse" x2="975.87" gradientTransform="matrix(1 0 0 -1 -156 55)" y1="-34.977" x1="896.25"><stop stop-color="#F3F2F2" offset="0"/><stop stop-color="#EBEAEA" offset="1"/></linearGradient><rect height="114.45" width="82.933" y="84.513" x="737.01" fill="url(#SVGID_13_)"/><path d="m786.77 215.55c0 2.735-2.237 4.976-4.976 4.976h-6.635c-2.737 0-4.977-2.239-4.977-4.976v-1.659c0-2.734 2.238-4.976 4.977-4.976h6.635c2.737 0 4.976 2.239 4.976 4.976v1.66z" fill="#fff"/><path d="m772.19 219.51l12.856-9.354c-0.876-0.768-2.008-1.249-3.257-1.249h-6.635c-2.737 0-4.977 2.239-4.977 4.976v1.659c0 1.62 0.8 3.05 2.01 3.96z" fill="#DCE9E9"/></g><g fill="#6D6E70"><rect height="4" width="60.609" y="107.97" x="748.72" display="inline"/><rect height="3.999" width="60.609" y="117.98" x="748.72" display="inline"/><rect height="4" width="60.609" y="128.97" x="748.72" display="inline"/><rect height="3.999" width="60.609" y="138.98" x="748.72" display="inline"/></g><circle display="inline" cy="172.78" cx="795.31" r="14.251" fill="#fff"/><polygon points="793.47 180.17 786.19 172.1 789.48 169.15 793.63 173.75 802.51 164.88 805.63 168" display="inline" fill="#8CC63E"/><circle display="inline" cy="172.78" cx="761.65" r="14.251" fill="#fff"/><g display="inline" fill="#EF4036"><rect transform="matrix(.7071 -.7072 .7072 .7071 101.12 589.17)" height="4.419" width="19.916" y="170.33" x="751.72"/><rect transform="matrix(.7071 .7071 -.7071 .7071 345.04 -487.94)" height="4.418" width="19.916" y="170.3" x="751.53"/></g><path d="m1173 218.67c0 10.678-8.655 19.332-19.332 19.332h-106.34c-10.677 0-19.332-8.654-19.332-19.332v-124.34c0-10.677 8.655-19.332 19.332-19.332h106.34c10.677 0 19.332 8.655 19.332 19.332v124.34z" display="inline" fill="#6D6E70"/><linearGradient id="SVGID_14_" y2="-95.5" gradientUnits="userSpaceOnUse" x2="1323" gradientTransform="matrix(1 0 0 -1 -156 55)" y1="-95.5" x1="1178"><stop stop-color="#F3F2F2" offset="0"/><stop stop-color="#EBEAEA" offset="1"/></linearGradient><path d="m1167 212.67c0 10.678-8.655 19.332-19.332 19.332h-106.34c-10.677 0-19.332-8.654-19.332-19.332v-124.34c0-10.677 8.655-19.332 19.332-19.332h106.34c10.677 0 19.332 8.655 19.332 19.332v124.34z" display="inline" fill="url(#SVGID_14_)"/><rect height="12" width="120" y="84" x="1034" display="inline" fill="#00548E"/><rect height="50" width="120" y="169" x="1034" display="inline" fill="#9FA1A4"/><rect height="54" width="54" y="105" x="1034" display="inline" fill="#20C4F4"/><rect height="54" width="54" y="105" x="1099" display="inline" fill="#FDB813"/><g display="inline" fill="#fff"><path d="m1128.1 129.39c0.094 0.039 0.341 0.107 0.561-0.112l9.425-9.427c0.396-0.396 0.366-1.049-0.068-1.4-2.643-2.141-5.803-3.465-9.179-3.85-0.563-0.064-1.056 0.374-1.056 0.939v13.375c0.1 0.3 0.3 0.43 0.4 0.47z"/><path d="m1139.5 121.4l-23.806 23.803c-0.399 0.402-0.36 1.068 0.089 1.416 3.105 2.395 6.893 3.698 10.87 3.711h0.041c9.893 0 17.931-8.04 17.931-17.92 0-3.997-1.304-7.803-3.711-10.922-0.3-0.46-1-0.5-1.4-0.09z"/><path d="m1110.6 142.97l1.313-1.312-4.985-4.939c0.8 2.29 2.1 4.42 3.7 6.25z"/><path d="m1107.1 125.17c-0.656 1.847-1.014 3.834-1.014 5.901 0 0.278 0.006 0.553 0.018 0.829l7.858 7.784 3.864-3.865-10.8-10.65z"/><path d="m1122.6 113.38c-0.795 0.05-1.574 0.154-2.34 0.306l2.34 2.34v-2.65z"/><path d="m1122.6 119.97l-5.392-5.391c-1.419 0.563-2.748 1.304-3.96 2.196l9.353 9.285v-6.09z"/><path d="m1121.8 131.8c0.492-0.491 0.785-1.127 0.841-1.811l-11.463-11.379c-1.127 1.14-2.101 2.431-2.888 3.839l11.472 11.39 2.1-2.04z"/></g><g display="inline" fill="#fff"><path d="m1043.3 142.43v6.549c0 0.398 0.324 0.729 0.729 0.729h5.063c0.397 0 0.73-0.322 0.73-0.729v-11.519l-3.68 3.675c-0.7 0.77-1.7 1.22-2.8 1.29z"/><path d="m1052.3 137.38v11.602c0 0.398 0.323 0.729 0.73 0.729h5.062c0.4 0 0.731-0.322 0.731-0.729v-6.83c-1.154-0.025-2.232-0.482-3.046-1.295l-3.5-3.48z"/><path d="m1061.4 141.43v7.553c0 0.398 0.324 0.729 0.729 0.729h5.063c0.398 0 0.729-0.322 0.729-0.729v-13.935l-5.8 5.801c-0.2 0.23-0.5 0.42-0.7 0.59z"/><path d="m1076.5 126.48l-6.036 6.033v16.466c0 0.398 0.325 0.729 0.731 0.729h5.063c0.398 0 0.731-0.322 0.731-0.729v-22.043c-0.168-0.141-0.291-0.266-0.384-0.349l-0.1-0.11z"/><path d="m1080.6 115.79c-0.239-0.257-0.604-0.39-1.069-0.39h-0.134c-2.356 0.107-4.705 0.224-7.063 0.331-0.315 0.017-0.748 0.034-1.087 0.375-0.109 0.107-0.193 0.232-0.258 0.382-0.352 0.755 0.14 1.245 0.372 1.477l0.589 0.598c0.409 0.415 0.824 0.83 1.238 1.237l-14.243 14.25-6.397-6.4c-0.382-0.381-0.896-0.598-1.442-0.598-0.55 0-1.057 0.216-1.438 0.598l-8.522 8.516c-0.797 0.796-0.797 2.083 0 2.88l0.382 0.382c0.382 0.382 0.896 0.597 1.442 0.597 0.549 0 1.055-0.215 1.437-0.597l6.699-6.697 6.397 6.397c0.382 0.383 0.896 0.598 1.442 0.598 0.55 0 1.055-0.215 1.446-0.598l16.066-16.066 1.818 1.809c0.214 0.216 0.514 0.514 0.97 0.514 0.19 0 0.381-0.049 0.58-0.158 0.134-0.074 0.25-0.157 0.348-0.258 0.358-0.356 0.424-0.813 0.44-1.169 0.065-1.528 0.143-3.055 0.218-4.59l0.107-2.299c0.2-0.47 0.1-0.84-0.2-1.11z"/></g><g fill="#fff"><circle display="inline" cy="206.17" cx="1046.5" r="4.167"/><circle display="inline" cy="188.17" cx="1070.5" r="4.167"/><circle display="inline" cy="200.17" cx="1096.5" r="4.167"/><circle display="inline" cy="192.17" cx="1122.5" r="4.167"/><circle display="inline" cy="180.17" cx="1145.5" r="4.167"/></g><polyline stroke="#fff" points="1046.5 206.17 1070.5 188.17 1096.5 200.17 1123.5 192.17 1145.5 180.17" stroke-miterlimit="10" stroke-width="3" display="inline" fill="none"/></g><g id="Layer_1_copy" display="none"><circle display="inline" cy="150" cx="150" r="140" fill="#CDCFD0"/><g display="inline"><path d="m70.948 222.69c-0.732 0-1.3-0.198-1.6-0.556-0.299-0.36-0.394-0.954-0.261-1.673l16.887-92.596c0.461-2.535 3.336-4.931 5.913-4.931h116.23c2.576 0 5.449 2.396 5.91 4.931l16.89 92.596c0.132 0.719 0.038 1.313-0.261 1.673-0.301 0.356-0.868 0.556-1.601 0.556h-158.11z" fill="#9FA1A4"/><path d="m206.64 130.46l15.659 84.697h-144.59l15.445-84.697h113.49zm1.47-15.05h-116.22c-6.211 0-12.205 5-13.319 11.109l-16.891 92.59c-1.113 6.111 3.057 11.109 9.269 11.109h158.1c6.211 0 10.381-4.998 9.27-11.109l-16.889-92.592c-1.11-6.11-7.11-11.11-13.32-11.11z" fill="#fff"/><path d="m208.23 122.94c2.576 0 5.392 2.396 5.853 4.931l16.858 92.596c0.133 0.718 0.023 1.312-0.275 1.673-0.3 0.356-0.882 0.555-1.614 0.555h-158.1c-0.732 0-1.3-0.197-1.6-0.555-0.299-0.361-0.394-0.955-0.261-1.673l16.887-92.596c0.461-2.535 3.336-4.931 5.913-4.931h116.46-0.12zm-0.12-7.53h-116.22c-6.211 0-12.205 5-13.319 11.109l-16.891 92.59c-1.113 6.111 3.057 11.109 9.269 11.109h158.1c6.211 0 10.381-4.998 9.27-11.109l-16.889-92.592c-1.11-6.11-7.11-11.11-13.32-11.11z" fill="#6D6E70"/><clipPath id="SVGID_16_"><use overflow="visible" xlink:href="#SVGID_15_"/></clipPath><path fill="#00548E" d="m80.651 167.73s4.703 10.021 8.122 10.863c3.445 0.846 7.112 0.846 5.42 4.728-1.744 4.014-10.218 8.397-13.021 9.571-2.829 1.194-11.28 5.08-11.28 5.08l10.759-30.24z" clip-path="url(#SVGID_16_)"/><clipPath id="SVGID_18_"><use overflow="visible" xlink:href="#SVGID_17_"/></clipPath><path fill="#00548E" d="m233.55 209.79s-14.461-10.481-16.704-10.481c-2.244 0-5.689-0.873-7.826-1.523-2.127-0.651-13.158-9.585-13.158-9.585s-20.873 1.21-23.016 4.077c-0.808 1.084-1.979 2.383-3.314 3.613l8.144 11.656c0.918 1.313 0.931 2.771 0.019 3.255l-3.336 1.742c-0.932 0.483-2.42-0.222-3.314-1.569l-7.406-11.132c-0.463 0.173-0.917 0.29-1.341 0.347-3.489 0.439-10.479 5.399-11.5 5.172-1.021-0.229-6.519-4.731-10.583-3.396-4.103 1.35-32.876 13.643-32.876 13.643l42.35 19.349 53.588-16.599 37.301 13.234-7.02-21.79z" clip-path="url(#SVGID_18_)"/><clipPath id="SVGID_20_"><use overflow="visible" xlink:href="#SVGID_19_"/></clipPath><path fill="#20C4F4" d="m184.66 133.61s-0.966 17.978-0.619 19.017c0.349 1.053 1.485 1.316 2.83 2.779 1.366 1.486 4.573 5.783 4.573 5.783s4.979 2.144 8.382 2.867c3.428 0.729 9.495 0.438 9.418-2.725-0.075-3.068-4.396-6.859-5.915-11.415-1.455-4.359-1.26-4.97-1.318-7.249-0.057-2.229 1.131-7.314-1.878-9.276-2.94-1.92-14.86-6.26-15.46 0.22z" clip-path="url(#SVGID_20_)"/><clipPath id="SVGID_22_"><use overflow="visible" xlink:href="#SVGID_21_"/></clipPath><path fill="#fff" d="m219.76 195.08c-1.901-0.949-4.542-1.221-6.864-1.464-0.718-0.069-1.396-0.144-1.845-0.216-1.532-0.59-7.803-5.194-10.51-7.592-2.465-2.185-5.099-2.375-6.435-2.125-2.405 0.189-17.926 1.448-21.256 2.396-2.322 0.665-4.17 2.243-5.531 3.819-1.274-1.873-2.086-3.069-2.231-3.285-0.667-1.02-4.534-5.553-8.245-9.844l10.271-4.16 24.99-6.006 32.32 8.959 0.467-2.883-32.576-8.914c-0.404-0.11-0.826-0.121-1.201-0.033l-0.27 0.063-10.201-10.42 2.938-30.985-3.032-0.314-3.015 26.94-15.479-0.286c-0.309-0.022-0.613 0.045-0.878 0.15-8.11 3.242-17.618 6.841-19.039 7.072-1.85 0.271-6.138 2.545-9.588 4.512-1.29-0.948-2.224-1.731-2.643-2.261-0.013-4.79-0.116-26.618-0.116-26.618l-8.52 0.406s-0.184 4.556-0.402 10.022c-4.147-0.368-9.579-0.828-11.542-0.909-1.29-2.544-3.18-6.738-3.166-8.01 0.027-2.033-2.916-7.19-3.239-7.757l-2.972 0.901c1.146 2.053 3.003 5.878 2.965 7.151-0.048 1.691 1.916 6.044 2.846 8.006-5.599 0.688-16.752 2.364-19.462 2.772l0.037 2.308c9.795-1.496 20.741-3.074 22.02-3.088 1.085 0 7.007 0.5 12.416 0.985-0.256 6.326-0.531 13.201-0.601 14.815-0.019 0.41-0.041 1.033 0.571 2.059-3.667 0.822-8.858 1.879-12.56 2.604l-19.95 1.316c-1.517-2.577-3.114-5.402-4.364-7.684l-3.519 1.431c1.155 2.185 7.375 13.853 9.218 15.474 1.345 1.182 3.873 1.735 6.111 2.229 0.836 0.18 2.059 0.447 2.53 0.646 0.586 1.18 1.09 6.903 1.246 12.071l-34.182 16.51 1.307 3.408 37.465-18.404 39.282-10.402 3.358-0.568c3.894 4.789 8.115 10.062 8.668 10.881 0.199 0.326 1.437 2.287 3.218 5.105-2.66 1.217-5.324 2.371-6.486 2.822l-0.545 0.222c-0.063 0.024-0.121 0.052-0.174 0.072-0.211-0.136-0.557-0.39-1.121-0.839-4.211-3.325-9.696-2.326-12.045-1.328-0.805 0.34-43.632 18.424-43.632 18.424l2.248 3.452s42.34-18.156 43.152-18.507c0.042-0.021 4.253-1.729 7.362 0.779 2.29 1.846 3.493 2.496 6.075 1.411l0.471-0.192c0.07-0.026 3.313-1.369 6.797-2.982 5.894 9.318 15.054 23.792 15.667 24.756l10.454-5.496c-5.674-8.304-12.654-18.527-17.082-25.018 1.438-2.139 3.15-3.631 4.721-4.088 2.285-0.66 13.706-1.745 20.787-2.312 0.127-0.012 0.181-0.016 0.299-0.045 0.163-0.028 1.028-0.116 2.156 0.9 0.088 0.081 9.828 8.44 13.183 9.06 0.657 0.121 1.456 0.205 2.384 0.305 1.494 0.153 4 0.418 4.947 0.899 1.374 0.69 10.073 6.496 15.417 10.117l2.122-2.919c-2.37-1.57-13.88-9.22-15.99-10.28zm-77.01-36.52c2.411-0.355 15.379-5.543 19.829-7.34l14.681 0.273-0.217 1.924c-0.033 0.305 0.088 0.614 0.342 0.882l9.92 10.343-21.649 5.131c-0.104 0.026-0.08 0.057-0.176 0.093l-10.654 4.304v-0.003c-0.008-0.419-0.943-0.78-1.471-1.067-6.5-3.55-13.468-7.67-18.083-10.77 3.42-1.93 6.54-3.58 7.48-3.75zm-0.43 18.81l-38.733 10.117c-0.608-11.529-1.918-12.386-2.422-12.71-0.819-0.529-2.142-0.816-3.811-1.176-1.718-0.371-3.847-0.832-4.615-1.489-0.452-0.39-1.544-2.04-2.871-4.206l18.263-1.221c0.11-0.011 0.22-0.025 0.327-0.043 1.923-0.379 9.452-1.879 14.246-3.024 2.679 2.646 8.245 6.836 19.904 13.696l-0.075 0.011c-0.08 0.01-0.15 0.03-0.22 0.04z" clip-path="url(#SVGID_22_)"/><clipPath id="SVGID_24_"><use overflow="visible" xlink:href="#SVGID_23_"/></clipPath><path fill="#20C4F4" d="m103.89 125.79s1.916 2.202 3.028 6.354c1.163 4.342 2.84 6.662 4.96 6.956 2.132 0.296 6.97 0.147 7.959-0.587 0.982-0.729 0.993-4.988 1.478-6.778 0.478-1.755 2.654-8.093 2.654-8.093l-6.373-2.588-13.71 4.74z" clip-path="url(#SVGID_24_)"/><path d="m130.54 91.226c0-11.939 9.679-21.616 21.62-21.616v-23.831c-25.101 0-45.449 20.348-45.449 45.447 0 6.979 1.618 13.567 4.43 19.478h-0.07c14.312 33.025 41.089 64.933 41.089 64.933v-62.792c-11.94 0-21.62-9.67-21.62-21.614z" fill="#B0252B"/><path d="m197.6 91.226c0-25.099-20.347-45.447-45.444-45.447v23.831c11.933 0 21.616 9.677 21.616 21.616s-9.684 21.619-21.616 21.619v62.792s26.771-31.908 41.081-64.933h-0.07c2.81-5.91 4.43-12.495 4.43-19.474z" fill="#EF4036"/><path d="m131.34 91.226c0-11.496 9.319-20.813 20.815-20.813v-13.37c-18.877 0-34.185 15.308-34.185 34.183 0 18.877 15.308 34.187 34.185 34.187v-13.375c-11.5 0-20.82-9.32-20.82-20.814z" fill="#EF4036"/><path d="m152.16 57.043v13.37c11.488 0 20.81 9.317 20.81 20.813 0 11.494-9.321 20.812-20.81 20.812v13.375c18.877 0 34.179-15.31 34.179-34.187 0-18.882-15.3-34.19-34.18-34.19z" fill="#B0252B"/></g><circle display="inline" cy="150" cx="465" r="140" fill="#CDCFD0"/><path d="m513.1 168.91l4.984-20.697c0.016-0.064 0.031-0.128 0.049-0.194 1.32-4.928 5.202-8.809 10.131-10.131l15.124-4.053c-2.481-2.958-6.205-4.843-10.357-4.843h-4.46c-1.142-3.58-2.586-7.069-4.315-10.411l3.155-3.155c5.271-5.271 5.271-13.849 0-19.119l-9.542-9.542c-2.553-2.553-5.947-3.958-9.561-3.958-3.608 0-7.004 1.406-9.557 3.958l-3.157 3.158c-3.342-1.731-6.832-3.178-10.409-4.315v-4.462c0-7.453-6.064-13.516-13.52-13.516h-13.494c-7.453 0-13.519 6.063-13.519 13.516v4.462c-3.578 1.138-7.068 2.584-10.409 4.315l-3.158-3.158c-2.553-2.553-5.947-3.958-9.559-3.958-3.609 0-7.004 1.408-9.561 3.961l-9.539 9.541c-5.271 5.271-5.271 13.847 0 19.117l3.155 3.155c-1.731 3.342-3.178 6.831-4.316 10.411h-4.461c-7.451 0-13.517 6.063-13.517 13.52v13.494c0 7.453 6.064 13.519 13.519 13.519h4.46c1.141 3.58 2.587 7.068 4.315 10.41l-3.155 3.154c-5.271 5.272-5.271 13.85 0 19.118l9.541 9.542c2.555 2.553 5.948 3.961 9.561 3.961 3.608 0 7.004-1.408 9.557-3.961l3.158-3.154c3.339 1.729 6.829 3.174 10.409 4.313v4.462c0 7.453 6.064 13.519 13.519 13.519h11.705c-1.083-2.58-1.654-5.373-1.654-8.258 0-5.701 2.22-11.061 6.252-15.093l38.64-38.64zm-48.18 16.63c-20.004 0-36.279-16.275-36.279-36.28 0-20.004 16.275-36.279 36.279-36.279 20.005 0 36.28 16.275 36.28 36.279 0 20.01-16.28 36.28-36.28 36.28z" display="inline" fill="#B0252B"/><circle display="inline" cy="150" cx="780" r="140" fill="#CDCFD0"/><circle display="inline" cy="150" cx="1095" r="140" fill="#CDCFD0"/><g display="inline"><path d="m513.1 168.91l4.984-20.697c0.016-0.064 0.031-0.128 0.049-0.194 1.32-4.928 5.202-8.809 10.131-10.131l15.124-4.053c-2.481-2.958-6.205-4.843-10.357-4.843h-4.46c-1.142-3.58-2.586-7.069-4.315-10.411l3.155-3.155c5.271-5.271 5.271-13.849 0-19.119l-9.542-9.542c-2.553-2.553-5.947-3.958-9.561-3.958-3.608 0-7.004 1.406-9.557 3.958l-3.157 3.158c-3.342-1.731-6.832-3.178-10.409-4.315v-4.462c0-7.453-6.064-13.516-13.52-13.516h-13.494c-7.453 0-13.519 6.063-13.519 13.516v4.462c-3.578 1.138-7.068 2.584-10.409 4.315l-3.158-3.158c-2.553-2.553-5.947-3.958-9.559-3.958-3.609 0-7.004 1.408-9.561 3.961l-9.539 9.541c-5.271 5.271-5.271 13.847 0 19.117l3.155 3.155c-1.731 3.342-3.178 6.831-4.316 10.411h-4.461c-7.451 0-13.517 6.063-13.517 13.52v13.494c0 7.453 6.064 13.519 13.519 13.519h4.46c1.141 3.58 2.587 7.068 4.315 10.41l-3.155 3.154c-5.271 5.272-5.271 13.85 0 19.118l9.541 9.542c2.555 2.553 5.948 3.961 9.561 3.961 3.608 0 7.004-1.408 9.557-3.961l3.158-3.154c3.339 1.729 6.829 3.174 10.409 4.313v4.462c0 7.453 6.064 13.519 13.519 13.519h11.705c-1.083-2.58-1.654-5.373-1.654-8.258 0-5.701 2.22-11.061 6.252-15.093l38.64-38.64zm-48.18 16.63c-20.004 0-36.279-16.275-36.279-36.28 0-20.004 16.275-36.279 36.279-36.279 20.005 0 36.28 16.275 36.28 36.279 0 20.01-16.28 36.28-36.28 36.28z" fill="#EF4036"/><path d="m576.15 154.94l-0.146-0.146c-0.425-0.427-0.991-0.647-1.604-0.666-0.601 0-1.179 0.236-1.604 0.664l-9.794 9.794c-1.499 1.499-3.492 2.323-5.611 2.323-2.121 0-4.114-0.824-5.614-2.325-1.5-1.499-2.325-3.492-2.325-5.613 0-2.119 0.825-4.113 2.325-5.613l9.794-9.792c0.425-0.428 0.663-1.005 0.663-1.605 0-0.602-0.24-1.181-0.666-1.605l-0.145-0.142c-1.634-1.634-3.809-2.536-6.12-2.536-0.756 0-1.509 0.101-2.239 0.295l-20.111 5.391c-2.979 0.799-5.323 3.144-6.121 6.12-0.004 0.02-0.009 0.037-0.013 0.055l-5.359 22.25-39.758 39.756c-2.961 2.961-4.591 6.896-4.588 11.083 0 4.188 1.63 8.122 4.59 11.083l0.948 0.948c2.96 2.96 6.896 4.592 11.085 4.592 4.185 0 8.122-1.63 11.082-4.59l39.757-39.756 22.249-5.359c0.018-0.005 0.036-0.009 0.056-0.014 2.977-0.797 5.321-3.142 6.12-6.12l5.388-20.115c0.78-2.96-0.08-6.16-2.25-8.34z" fill="#00548E"/><path d="m499.96 222.82c-0.857 0.856-1.996 1.328-3.207 1.328s-2.352-0.472-3.208-1.328c-0.855-0.854-1.327-1.994-1.327-3.207 0-1.211 0.472-2.352 1.329-3.205 0.854-0.856 1.995-1.328 3.206-1.328s2.35 0.472 3.207 1.328c0.855 0.854 1.328 1.994 1.328 3.205-0.01 1.22-0.48 2.36-1.33 3.22z" fill="#231F20"/><path d="m526.68 194.49l-18.765 18.764c-0.642 0.644-1.496 0.997-2.404 0.997-0.907 0-1.763-0.354-2.404-0.997-0.643-0.642-0.996-1.497-0.996-2.403 0-0.91 0.354-1.764 0.996-2.404l18.763-18.766c0.645-0.643 1.497-0.996 2.404-0.996 0.91 0 1.765 0.354 2.406 0.996 0.644 0.643 0.994 1.497 0.994 2.404 0 0.91-0.35 1.77-1 2.41z" fill="#231F20"/><path d="m526.68 194.49" fill="#00548E"/></g><circle r="36.5" cy="152" stroke="#6D6E70" cx="468" stroke-miterlimit="10" stroke-width="15" display="inline" fill="none"/><g display="inline"><clipPath id="SVGID_26_"><use overflow="visible" xlink:href="#SVGID_25_"/></clipPath><circle r="41" clip-path="url(#SVGID_26_)" cy="149" stroke="#B0252B" cx="465" stroke-miterlimit="10" stroke-width="33" fill="none"/></g><circle r="36.5" cy="149" stroke="#fff" cx="465" stroke-miterlimit="10" stroke-width="12" display="inline" fill="none"/><path d="m561.56 140.36s-19.454 6.284-20.063 19.808c-0.417 9.25 6.662 14.24 14.156 14.45 10.678 0.3 17.261-13.033 20.531-19.367 0 0-0.25-1-1.688-1.188-1.192-0.155-4.875 3.438-5.938 4.688s-5.688 5.875-8.063 7.25c-5.767 3.339-15.522-5.443-8.313-13 5.188-5.438 8.979-8.667 9.729-9.667s0.21-2.45-0.36-2.97z" display="inline" fill="#231F20"/><g display="inline"><path d="m838.19 215.17c0 10.66-8.698 19.301-19.43 19.301h-63.979c-10.729 0-19.429-8.641-19.429-19.301v-125.61c0-10.656 8.7-19.296 19.429-19.296h63.979c10.73 0 19.43 8.64 19.43 19.296v125.61z" fill="#6D6E70"/><path d="m829.89 211.17c0 10.66-8.697 19.301-19.428 19.301h-63.979c-10.729 0-19.43-8.641-19.43-19.301v-125.61c0-10.656 8.7-19.296 19.43-19.296h63.979c10.729 0 19.428 8.64 19.428 19.296v125.61z" fill="#20C4F4"/><rect height="114.45" width="82.933" y="84.513" x="737.01" fill="url(#SVGID_13_)"/><path d="m786.77 215.55c0 2.735-2.237 4.976-4.976 4.976h-6.635c-2.737 0-4.977-2.239-4.977-4.976v-1.659c0-2.734 2.238-4.976 4.977-4.976h6.635c2.737 0 4.976 2.239 4.976 4.976v1.66z" fill="#fff"/><path d="m772.19 219.51l12.856-9.354c-0.876-0.768-2.008-1.249-3.257-1.249h-6.635c-2.737 0-4.977 2.239-4.977 4.976v1.659c0 1.62 0.8 3.05 2.01 3.96z" fill="#DCE9E9"/></g><g fill="#6D6E70"><rect height="4" width="60.609" y="107.97" x="748.72" display="inline"/><rect height="3.999" width="60.609" y="117.98" x="748.72" display="inline"/><rect height="4" width="60.609" y="128.97" x="748.72" display="inline"/><rect height="3.999" width="60.609" y="138.98" x="748.72" display="inline"/></g><circle display="inline" cy="172.78" cx="795.31" r="14.251" fill="#fff"/><polygon points="793.47 180.17 786.19 172.1 789.48 169.15 793.63 173.75 802.51 164.88 805.63 168" display="inline" fill="#00548E"/><circle display="inline" cy="172.78" cx="761.65" r="14.251" fill="#fff"/><g display="inline" fill="#EF4036"><rect transform="matrix(.7071 -.7072 .7072 .7071 101.12 589.17)" height="4.419" width="19.916" y="170.33" x="751.72"/><rect transform="matrix(.7071 .7071 -.7071 .7071 345.04 -487.94)" height="4.418" width="19.916" y="170.3" x="751.53"/></g><path d="m1173 218.67c0 10.678-8.655 19.332-19.332 19.332h-106.34c-10.677 0-19.332-8.654-19.332-19.332v-124.34c0-10.677 8.655-19.332 19.332-19.332h106.34c10.677 0 19.332 8.655 19.332 19.332v124.34z" display="inline" fill="#6D6E70"/><path d="m1167 212.67c0 10.678-8.655 19.332-19.332 19.332h-106.34c-10.677 0-19.332-8.654-19.332-19.332v-124.34c0-10.677 8.655-19.332 19.332-19.332h106.34c10.677 0 19.332 8.655 19.332 19.332v124.34z" display="inline" fill="#fff"/><rect height="12" width="120" y="84" x="1034" display="inline" fill="#00548E"/><rect height="50" width="120" y="169" x="1034" display="inline" fill="#9FA1A4"/><rect height="54" width="54" y="105" x="1034" display="inline" fill="#20C4F4"/><rect height="54" width="54" y="105" x="1099" display="inline" fill="#EF4036"/><g display="inline" fill="#fff"><path d="m1128.1 129.39c0.094 0.039 0.341 0.107 0.561-0.112l9.425-9.427c0.396-0.396 0.366-1.049-0.068-1.4-2.643-2.141-5.803-3.465-9.179-3.85-0.563-0.064-1.056 0.374-1.056 0.939v13.375c0.1 0.3 0.3 0.43 0.4 0.47z"/><path d="m1139.5 121.4l-23.806 23.803c-0.399 0.402-0.36 1.068 0.089 1.416 3.105 2.395 6.893 3.698 10.87 3.711h0.041c9.893 0 17.931-8.04 17.931-17.92 0-3.997-1.304-7.803-3.711-10.922-0.3-0.46-1-0.5-1.4-0.09z"/><path d="m1110.6 142.97l1.313-1.312-4.985-4.939c0.8 2.29 2.1 4.42 3.7 6.25z"/><path d="m1107.1 125.17c-0.656 1.847-1.014 3.834-1.014 5.901 0 0.278 0.006 0.553 0.018 0.829l7.858 7.784 3.864-3.865-10.8-10.65z"/><path d="m1122.6 113.38c-0.795 0.05-1.574 0.154-2.34 0.306l2.34 2.34v-2.65z"/><path d="m1122.6 119.97l-5.392-5.391c-1.419 0.563-2.748 1.304-3.96 2.196l9.353 9.285v-6.09z"/><path d="m1121.8 131.8c0.492-0.491 0.785-1.127 0.841-1.811l-11.463-11.379c-1.127 1.14-2.101 2.431-2.888 3.839l11.472 11.39 2.1-2.04z"/></g><g display="inline" fill="#fff"><path d="m1043.3 142.43v6.549c0 0.398 0.324 0.729 0.729 0.729h5.063c0.397 0 0.73-0.322 0.73-0.729v-11.519l-3.68 3.675c-0.7 0.77-1.7 1.22-2.8 1.29z"/><path d="m1052.3 137.38v11.602c0 0.398 0.323 0.729 0.73 0.729h5.062c0.4 0 0.731-0.322 0.731-0.729v-6.83c-1.154-0.025-2.232-0.482-3.046-1.295l-3.5-3.48z"/><path d="m1061.4 141.43v7.553c0 0.398 0.324 0.729 0.729 0.729h5.063c0.398 0 0.729-0.322 0.729-0.729v-13.935l-5.8 5.801c-0.2 0.23-0.5 0.42-0.7 0.59z"/><path d="m1076.5 126.48l-6.036 6.033v16.466c0 0.398 0.325 0.729 0.731 0.729h5.063c0.398 0 0.731-0.322 0.731-0.729v-22.043c-0.168-0.141-0.291-0.266-0.384-0.349l-0.1-0.11z"/><path d="m1080.6 115.79c-0.239-0.257-0.604-0.39-1.069-0.39h-0.134c-2.356 0.107-4.705 0.224-7.063 0.331-0.315 0.017-0.748 0.034-1.087 0.375-0.109 0.107-0.193 0.232-0.258 0.382-0.352 0.755 0.14 1.245 0.372 1.477l0.589 0.598c0.409 0.415 0.824 0.83 1.238 1.237l-14.243 14.25-6.397-6.4c-0.382-0.381-0.896-0.598-1.442-0.598-0.55 0-1.057 0.216-1.438 0.598l-8.522 8.516c-0.797 0.796-0.797 2.083 0 2.88l0.382 0.382c0.382 0.382 0.896 0.597 1.442 0.597 0.549 0 1.055-0.215 1.437-0.597l6.699-6.697 6.397 6.397c0.382 0.383 0.896 0.598 1.442 0.598 0.55 0 1.055-0.215 1.446-0.598l16.066-16.066 1.818 1.809c0.214 0.216 0.514 0.514 0.97 0.514 0.19 0 0.381-0.049 0.58-0.158 0.134-0.074 0.25-0.157 0.348-0.258 0.358-0.356 0.424-0.813 0.44-1.169 0.065-1.528 0.143-3.055 0.218-4.59l0.107-2.299c0.2-0.47 0.1-0.84-0.2-1.11z"/></g><g fill="#fff"><circle display="inline" cy="206.17" cx="1046.5" r="4.167"/><circle display="inline" cy="188.17" cx="1070.5" r="4.167"/><circle display="inline" cy="200.17" cx="1096.5" r="4.167"/><circle display="inline" cy="192.17" cx="1122.5" r="4.167"/><circle display="inline" cy="180.17" cx="1145.5" r="4.167"/></g><polyline stroke="#fff" points="1046.5 206.17 1070.5 188.17 1096.5 200.17 1123.5 192.17 1145.5 180.17" stroke-miterlimit="10" stroke-width="3" display="inline" fill="none"/></g><circle cy="150" cx="150" r="140" fill="#00548E"/><path d="m70.948 222.69c-0.732 0-1.3-0.198-1.6-0.556-0.299-0.36-0.394-0.954-0.261-1.673l16.887-92.596c0.461-2.535 3.336-4.931 5.913-4.931h116.23c2.576 0 5.449 2.396 5.91 4.931l16.89 92.596c0.132 0.719 0.038 1.313-0.261 1.673-0.301 0.356-0.868 0.556-1.601 0.556h-158.11z" fill="#9FA1A4"/><path d="m206.64 130.46l15.659 84.697h-144.59l15.445-84.697h113.49zm1.47-15.05h-116.22c-6.211 0-12.205 5-13.319 11.109l-16.891 92.59c-1.113 6.111 3.057 11.109 9.269 11.109h158.1c6.211 0 10.381-4.998 9.27-11.109l-16.889-92.592c-1.11-6.11-7.11-11.11-13.32-11.11z" fill="#fff"/><path d="m208.23 122.94c2.576 0 5.392 2.396 5.853 4.931l16.858 92.596c0.133 0.718 0.023 1.312-0.275 1.673-0.3 0.356-0.882 0.555-1.614 0.555h-158.1c-0.732 0-1.3-0.197-1.6-0.555-0.299-0.361-0.394-0.955-0.261-1.673l16.887-92.596c0.461-2.535 3.336-4.931 5.913-4.931h116.46-0.12zm-0.12-7.53h-116.22c-6.211 0-12.205 5-13.319 11.109l-16.891 92.59c-1.113 6.111 3.057 11.109 9.269 11.109h158.1c6.211 0 10.381-4.998 9.27-11.109l-16.889-92.592c-1.11-6.11-7.11-11.11-13.32-11.11z" fill="#231F20"/><clipPath id="SVGID_29_"><use overflow="visible" xlink:href="#SVGID_28_"/></clipPath><path fill="#20C4F4" d="m80.651 167.73s4.703 10.021 8.122 10.863c3.445 0.846 7.112 0.846 5.42 4.728-1.744 4.014-10.218 8.397-13.021 9.571-2.829 1.194-11.28 5.08-11.28 5.08l10.759-30.24z" clip-path="url(#SVGID_29_)"/><clipPath id="SVGID_31_"><use overflow="visible" xlink:href="#SVGID_30_"/></clipPath><path fill="#20C4F4" d="m233.55 209.79s-14.461-10.481-16.704-10.481c-2.244 0-5.689-0.873-7.826-1.523-2.127-0.651-13.158-9.585-13.158-9.585s-20.873 1.21-23.016 4.077c-0.808 1.084-1.979 2.383-3.314 3.613l8.144 11.656c0.918 1.313 0.931 2.771 0.019 3.255l-3.336 1.742c-0.932 0.483-2.42-0.222-3.314-1.569l-7.406-11.132c-0.463 0.173-0.917 0.29-1.341 0.347-3.489 0.439-10.479 5.399-11.5 5.172-1.021-0.229-6.519-4.731-10.583-3.396-4.103 1.35-32.876 13.643-32.876 13.643l42.35 19.349 53.588-16.599 37.301 13.234-7.02-21.79z" clip-path="url(#SVGID_31_)"/><clipPath id="SVGID_33_"><use overflow="visible" xlink:href="#SVGID_32_"/></clipPath><path fill="#20C4F4" d="m184.66 133.61s-0.966 17.978-0.619 19.017c0.349 1.053 1.485 1.316 2.83 2.779 1.366 1.486 4.573 5.783 4.573 5.783s4.979 2.144 8.382 2.867c3.428 0.729 9.495 0.438 9.418-2.725-0.075-3.068-4.396-6.859-5.915-11.415-1.455-4.359-1.26-4.97-1.318-7.249-0.057-2.229 1.131-7.314-1.878-9.276-2.94-1.92-14.86-6.26-15.46 0.22z" clip-path="url(#SVGID_33_)"/><clipPath id="SVGID_35_"><use overflow="visible" xlink:href="#SVGID_34_"/></clipPath><path fill="#fff" d="m219.76 195.08c-1.901-0.949-4.542-1.221-6.864-1.464-0.718-0.069-1.396-0.144-1.845-0.216-1.532-0.59-7.803-5.194-10.51-7.592-2.465-2.185-5.099-2.375-6.435-2.125-2.405 0.189-17.926 1.448-21.256 2.396-2.322 0.665-4.17 2.243-5.531 3.819-1.274-1.873-2.086-3.069-2.231-3.285-0.667-1.02-4.534-5.553-8.245-9.844l10.271-4.16 24.99-6.006 32.32 8.959 0.467-2.883-32.576-8.914c-0.404-0.11-0.826-0.121-1.201-0.033l-0.27 0.063-10.201-10.42 2.938-30.985-3.032-0.314-3.015 26.94-15.479-0.286c-0.309-0.022-0.613 0.045-0.878 0.15-8.11 3.242-17.618 6.841-19.039 7.072-1.85 0.271-6.138 2.545-9.588 4.512-1.29-0.948-2.224-1.731-2.643-2.261-0.013-4.79-0.116-26.618-0.116-26.618l-8.52 0.406s-0.184 4.556-0.402 10.022c-4.147-0.368-9.579-0.828-11.542-0.909-1.29-2.544-3.18-6.738-3.166-8.01 0.027-2.033-2.916-7.19-3.239-7.757l-2.972 0.901c1.146 2.053 3.003 5.878 2.965 7.151-0.048 1.691 1.916 6.044 2.846 8.006-5.599 0.688-16.752 2.364-19.462 2.772l0.037 2.308c9.795-1.496 20.741-3.074 22.02-3.088 1.085 0 7.007 0.5 12.416 0.985-0.256 6.326-0.531 13.201-0.601 14.815-0.019 0.41-0.041 1.033 0.571 2.059-3.667 0.822-8.858 1.879-12.56 2.604l-19.95 1.316c-1.517-2.577-3.114-5.402-4.364-7.684l-3.519 1.431c1.155 2.185 7.375 13.853 9.218 15.474 1.345 1.182 3.873 1.735 6.111 2.229 0.836 0.18 2.059 0.447 2.53 0.646 0.586 1.18 1.09 6.903 1.246 12.071l-34.182 16.51 1.307 3.408 37.465-18.404 39.282-10.402 3.358-0.568c3.894 4.789 8.115 10.062 8.668 10.881 0.199 0.326 1.437 2.287 3.218 5.105-2.66 1.217-5.324 2.371-6.486 2.822l-0.545 0.222c-0.063 0.024-0.121 0.052-0.174 0.072-0.211-0.136-0.557-0.39-1.121-0.839-4.211-3.325-9.696-2.326-12.045-1.328-0.805 0.34-43.632 18.424-43.632 18.424l2.248 3.452s42.34-18.156 43.152-18.507c0.042-0.021 4.253-1.729 7.362 0.779 2.29 1.846 3.493 2.496 6.075 1.411l0.471-0.192c0.07-0.026 3.313-1.369 6.797-2.982 5.894 9.318 15.054 23.792 15.667 24.756l10.454-5.496c-5.674-8.304-12.654-18.527-17.082-25.018 1.438-2.139 3.15-3.631 4.721-4.088 2.285-0.66 13.706-1.745 20.787-2.312 0.127-0.012 0.181-0.016 0.299-0.045 0.163-0.028 1.028-0.116 2.156 0.9 0.088 0.081 9.828 8.44 13.183 9.06 0.657 0.121 1.456 0.205 2.384 0.305 1.494 0.153 4 0.418 4.947 0.899 1.374 0.69 10.073 6.496 15.417 10.117l2.122-2.919c-2.37-1.57-13.88-9.22-15.99-10.28zm-77.01-36.52c2.411-0.355 15.379-5.543 19.829-7.34l14.681 0.273-0.217 1.924c-0.033 0.305 0.088 0.614 0.342 0.882l9.92 10.343-21.649 5.131c-0.104 0.026-0.08 0.057-0.176 0.093l-10.654 4.304v-0.003c-0.008-0.419-0.943-0.78-1.471-1.067-6.5-3.55-13.468-7.67-18.083-10.77 3.42-1.93 6.54-3.58 7.48-3.75zm-0.43 18.81l-38.733 10.117c-0.608-11.529-1.918-12.386-2.422-12.71-0.819-0.529-2.142-0.816-3.811-1.176-1.718-0.371-3.847-0.832-4.615-1.489-0.452-0.39-1.544-2.04-2.871-4.206l18.263-1.221c0.11-0.011 0.22-0.025 0.327-0.043 1.923-0.379 9.452-1.879 14.246-3.024 2.679 2.646 8.245 6.836 19.904 13.696l-0.075 0.011c-0.08 0.01-0.15 0.03-0.22 0.04z" clip-path="url(#SVGID_35_)"/><clipPath id="SVGID_37_"><use overflow="visible" xlink:href="#SVGID_36_"/></clipPath><path fill="#20C4F4" d="m103.89 125.79s1.916 2.202 3.028 6.354c1.163 4.342 2.84 6.662 4.96 6.956 2.132 0.296 6.97 0.147 7.959-0.587 0.982-0.729 0.993-4.988 1.478-6.778 0.478-1.755 2.654-8.093 2.654-8.093l-6.373-2.588-13.71 4.74z" clip-path="url(#SVGID_37_)"/><path d="m130.54 91.226c0-11.939 9.679-21.616 21.62-21.616v-23.831c-25.101 0-45.449 20.348-45.449 45.447 0 6.979 1.618 13.567 4.43 19.478h-0.07c14.312 33.025 41.089 64.933 41.089 64.933v-62.792c-11.94 0-21.62-9.67-21.62-21.614z" fill="#B0252B"/><path d="m197.6 91.226c0-25.099-20.347-45.447-45.444-45.447v23.831c11.933 0 21.616 9.677 21.616 21.616s-9.684 21.619-21.616 21.619v62.792s26.771-31.908 41.081-64.933h-0.07c2.81-5.91 4.43-12.495 4.43-19.474z" fill="#EF4036"/><path d="m131.34 91.226c0-11.496 9.319-20.813 20.815-20.813v-13.37c-18.877 0-34.185 15.308-34.185 34.183 0 18.877 15.308 34.187 34.185 34.187v-13.375c-11.5 0-20.82-9.32-20.82-20.814z" fill="#EF4036"/><path d="m152.16 57.043v13.37c11.488 0 20.81 9.317 20.81 20.813 0 11.494-9.321 20.812-20.81 20.812v13.375c18.877 0 34.179-15.31 34.179-34.187 0-18.882-15.3-34.19-34.18-34.19z" fill="#B0252B"/></svg>
